<?xml version="1.0" standalone="no"?>
<!DOCTYPE svg PUBLIC "-//W3C//DTD SVG 20010904//EN"
 "http://www.w3.org/TR/2001/REC-SVG-20010904/DTD/svg10.dtd">
<svg version="1.0" xmlns="http://www.w3.org/2000/svg"
 width="260.000000pt" height="260.000000pt" viewBox="0 0 260.000000 260.000000"
 preserveAspectRatio="xMidYMid meet">
<metadata>
Created by potrace 1.14, written by Peter Selinger 2001-2017
</metadata>
<g transform="translate(0.000000,260.000000) scale(0.100000,-0.100000)"
fill="#000000" stroke="none">
<path d="M1793 2270 c-6 -24 -23 -27 -23 -3 0 15 -2 16 -15 2 -12 -12 -28 -14
-73 -8 -62 7 -352 3 -392 -6 -14 -3 -45 -8 -70 -11 -25 -3 -63 -10 -85 -16
-22 -6 -43 -11 -47 -10 -4 1 -5 -5 -2 -13 4 -8 11 -15 17 -15 24 0 -9 -18 -38
-21 -16 -2 -34 -6 -40 -10 -17 -12 -147 -59 -164 -59 -9 0 -36 -10 -61 -22
-25 -12 -49 -22 -54 -22 -5 -1 -11 -6 -13 -12 -5 -16 184 -9 235 10 24 9 42
11 42 5 0 -5 -6 -11 -12 -13 -7 -2 -37 -11 -67 -20 -29 -9 -57 -13 -62 -10 -5
3 -9 1 -9 -4 0 -4 -24 -14 -52 -21 -72 -19 -129 -45 -220 -104 -84 -54 -106
-75 -33 -33 46 27 63 21 22 -7 l-22 -16 26 0 c15 -1 32 5 38 13 12 14 55 30
47 17 -5 -8 112 20 157 38 15 6 27 8 27 5 0 -2 10 1 22 7 13 7 32 13 43 15 25
3 72 12 105 20 59 14 75 15 60 6 -8 -6 -28 -12 -45 -15 -35 -7 -188 -57 -195
-64 -3 -3 12 -3 33 1 27 5 37 3 37 -6 0 -9 3 -9 10 2 5 8 10 11 10 5 0 -5 -12
-20 -27 -33 -15 -12 -28 -29 -29 -37 -2 -16 26 -20 41 -6 18 16 130 49 190 55
33 3 72 8 86 9 15 2 26 -1 26 -8 0 -7 -18 -12 -46 -12 -56 -1 -131 -20 -131
-34 0 -6 6 -7 13 -2 6 4 32 8 57 10 53 2 93 8 137 18 26 6 33 3 42 -14 11 -21
9 -114 -4 -161 -4 -14 -8 -36 -10 -50 -2 -14 -8 -37 -14 -52 -6 -16 -8 -28 -5
-28 4 0 1 -7 -6 -15 -7 -9 -14 -25 -16 -38 -4 -26 -68 -210 -80 -229 -5 -7 -9
-18 -10 -24 -1 -6 -12 -33 -24 -60 -13 -27 -24 -54 -25 -60 -7 -29 -97 -189
-148 -261 -66 -93 -97 -119 -127 -103 -11 6 -20 14 -21 18 -5 45 -3 76 8 127
17 83 15 101 -5 34 -9 -31 -22 -54 -27 -52 -11 3 -12 64 -1 81 3 5 8 27 12 48
3 21 14 61 24 89 31 86 34 98 19 90 -8 -4 -4 2 7 12 15 12 23 34 27 66 2 26
13 57 22 67 29 32 12 32 -20 0 -45 -44 -52 -53 -75 -109 -13 -28 -27 -51 -32
-51 -6 0 -8 -7 -5 -15 4 -8 2 -17 -4 -20 -5 -4 -6 -12 -3 -18 4 -7 -1 -5 -10
4 -14 12 -15 21 -5 50 20 64 44 109 55 105 7 -3 10 3 7 13 -2 10 7 28 23 44
15 15 23 27 18 27 -5 0 -1 5 9 11 9 6 14 15 11 21 -4 6 -3 8 3 5 5 -3 17 3 26
13 21 25 2 38 -22 16 -10 -9 -25 -16 -34 -16 -8 0 -19 -10 -23 -22 -3 -12 -15
-31 -26 -42 -17 -19 -71 -121 -73 -138 -1 -17 -15 -19 -15 -2 0 11 4 24 10 30
5 5 11 19 13 30 1 11 13 37 25 58 12 20 22 40 22 43 0 3 15 24 34 47 18 23 40
55 49 71 9 17 37 52 62 80 42 46 53 65 40 65 -3 0 -11 -5 -18 -10 -67 -58 -91
-80 -85 -80 7 0 -13 -23 -65 -77 -12 -13 -17 -23 -12 -23 5 0 -5 -15 -22 -32
-17 -18 -34 -43 -38 -55 -3 -13 -14 -23 -23 -23 -12 0 -13 3 -4 12 7 7 12 19
12 28 -1 12 -32 -32 -35 -50 -1 -3 -19 -43 -42 -90 -22 -47 -44 -97 -47 -113
-4 -18 -13 -27 -26 -27 -11 0 -20 -5 -20 -11 0 -5 4 -8 9 -5 5 3 11 -1 15 -9
3 -8 -2 -18 -10 -23 -15 -9 -18 -20 -30 -122 -10 -84 -5 -205 10 -228 3 -5 8
-24 11 -43 3 -18 10 -36 14 -39 4 -3 22 -32 40 -65 32 -58 94 -124 119 -125 6
0 12 -5 12 -11 0 -5 4 -7 10 -4 5 3 10 2 10 -2 0 -5 14 -10 31 -11 17 -1 45
-10 62 -19 33 -17 211 -28 202 -12 -6 8 10 14 70 24 82 14 167 103 250 263 15
29 31 55 36 58 5 3 7 10 4 15 -4 5 -1 9 4 9 6 0 11 9 11 20 0 11 5 20 10 20 6
0 10 5 10 11 0 15 101 223 112 230 5 3 9 10 8 15 -1 5 3 10 8 12 11 3 3 -43
-13 -75 -7 -12 -16 -19 -20 -15 -5 4 -5 1 -1 -5 4 -7 -2 -33 -13 -57 -10 -25
-17 -47 -15 -49 3 -3 -9 -19 -26 -36 -17 -17 -24 -28 -16 -25 12 5 15 2 10
-12 -4 -11 -11 -25 -17 -31 -5 -7 -6 -13 -2 -13 5 0 1 -8 -7 -17 -15 -18 -82
-151 -83 -165 0 -4 -8 -16 -17 -27 -9 -11 -24 -33 -32 -48 -22 -43 -61 -79
-115 -106 -39 -20 -44 -21 -36 -7 3 6 -1 10 -10 10 -9 0 -14 -4 -11 -8 2 -4
-12 -6 -32 -4 -36 4 -39 -8 -4 -16 58 -13 126 1 159 34 7 7 16 14 20 16 12 5
93 116 93 126 0 5 7 15 15 22 8 7 15 21 15 30 0 10 4 20 9 22 10 3 101 190
106 218 2 10 9 28 15 40 6 12 13 29 15 38 2 9 11 35 21 57 10 22 19 45 19 50
2 16 27 89 35 100 8 10 15 41 25 105 3 19 15 61 25 93 11 32 21 65 23 75 1 9
6 23 11 30 4 7 10 29 12 48 2 20 9 44 14 54 5 9 7 20 4 23 -3 3 -1 15 6 26 6
12 13 35 15 51 2 16 6 37 9 47 16 51 30 196 18 189 -9 -5 -15 -29 -29 -100 -9
-49 -35 -126 -45 -132 -7 -4 -6 -9 2 -14 14 -9 6 -40 -10 -40 -12 0 -13 47 -1
54 5 4 12 25 16 49 3 23 10 56 15 72 5 17 11 48 14 70 2 22 7 51 11 65 3 14 8
36 11 50 7 35 28 55 61 58 43 3 53 22 13 23 -31 2 -32 3 -7 6 15 2 27 8 27 13
0 5 -7 7 -15 4 -9 -4 -15 0 -15 10 0 8 -12 22 -27 30 -16 8 -23 16 -18 17 29
4 107 9 158 11 31 2 56 7 54 12 -2 6 -21 20 -43 31 -85 45 -85 47 -9 40 172
-14 240 -16 225 -6 -32 23 -173 72 -188 66 -9 -3 -13 -3 -9 1 10 10 -84 36
-155 43 -3 1 -4 10 -1 21 3 11 2 20 -2 20 -4 0 -9 -9 -12 -20z m-68 -40 c3 -6
-1 -7 -9 -4 -18 7 -21 14 -7 14 6 0 13 -4 16 -10z m115 -9 c0 -10 -26 -9 -36
2 -4 4 2 7 14 7 12 0 22 -4 22 -9z m60 -7 c0 -2 -9 -4 -20 -4 -11 0 -20 4 -20
9 0 5 9 7 20 4 11 -3 20 -7 20 -9z m-834 -141 c-3 -4 -17 -8 -29 -10 -17 -2
-19 -1 -7 7 17 11 47 14 36 3z m74 -98 c0 -2 -10 -9 -22 -15 -22 -11 -22 -10
-4 4 21 17 26 19 26 11z m50 1 c0 -2 -7 -7 -16 -10 -8 -3 -12 -2 -9 4 6 10 25
14 25 6z m155 -96 c3 -5 -1 -10 -10 -10 -9 0 -13 5 -10 10 3 6 8 10 10 10 2 0
7 -4 10 -10z m78 -20 c6 -23 1 -25 -17 -7 -13 13 -10 41 4 32 4 -2 10 -14 13
-25z m-63 -31 c7 -24 5 -116 -3 -149 -13 -53 -22 -77 -34 -95 -13 -18 -14 -16
-8 25 3 25 8 63 12 85 8 49 5 98 -7 129 -5 13 -6 27 -2 30 13 14 36 0 42 -25z
m238 14 c9 -17 8 -60 -1 -126 -7 -49 -14 -39 -14 20 -1 73 -4 93 -15 93 -4 0
-8 7 -8 15 0 21 27 19 38 -2z m-162 -57 c14 -56 5 -141 -23 -225 -17 -51 -36
-79 -27 -40 22 103 31 209 21 266 -5 25 -3 31 9 26 8 -3 17 -15 20 -27z m-69
-398 c-2 -13 -4 -5 -4 17 -1 22 1 32 4 23 2 -10 2 -28 0 -40z m287 -70 c-5 -7
-9 -17 -10 -23 0 -5 -2 -16 -2 -22 -1 -7 -6 -13 -12 -13 -10 0 -6 19 13 57 6
13 12 21 15 19 2 -3 0 -11 -4 -18z m-334 -76 c0 -5 -7 -17 -15 -28 -14 -18
-14 -17 -4 9 12 27 19 34 19 19z m306 -4 c-7 -39 -19 -84 -25 -93 -6 -10 -7
-16 -10 -35 0 -5 -5 -10 -10 -10 -5 0 -7 10 -3 22 3 14 2 19 -6 14 -7 -4 -12
-2 -12 4 0 7 6 10 14 7 9 -4 16 4 19 21 7 34 25 82 31 82 2 0 3 -6 2 -12z
m-457 -32 c-5 -19 -16 -48 -24 -63 -8 -15 -15 -35 -15 -43 0 -8 -9 -32 -20
-53 -11 -20 -20 -45 -20 -56 0 -10 -9 -30 -21 -45 -11 -14 -17 -26 -13 -26 5
0 3 -5 -4 -12 -7 -7 -12 -20 -12 -29 0 -10 -6 -24 -12 -31 -7 -7 -19 -25 -26
-39 -17 -32 -82 -106 -82 -93 0 5 -4 4 -8 -2 -11 -17 -52 -28 -52 -14 0 16 71
86 82 82 5 -1 7 2 3 8 -3 5 4 20 17 33 21 21 71 113 65 120 -1 1 8 16 21 34
12 17 22 36 22 42 0 6 5 11 11 11 6 0 9 7 5 15 -3 8 -1 15 4 15 6 0 10 5 10
11 0 5 13 37 29 70 17 32 28 59 25 59 -3 0 0 9 6 20 16 30 20 24 9 -14z m405
-145 c3 -5 -1 -11 -9 -14 -9 -4 -12 -1 -8 9 6 16 10 17 17 5z"/>
<path d="M914 2164 c-65 -23 -130 -47 -144 -53 -24 -11 -24 -11 5 -5 17 4 38
7 48 8 9 0 17 4 17 9 0 5 7 7 15 3 8 -3 15 -1 15 4 0 6 3 9 8 8 4 -1 21 5 37
12 17 7 35 14 40 14 22 3 101 30 109 37 19 17 -36 3 -150 -37z"/>
<path d="M720 2089 c0 -5 5 -7 10 -4 6 3 10 8 10 11 0 2 -4 4 -10 4 -5 0 -10
-5 -10 -11z"/>
<path d="M790 1858 c-35 -20 -35 -20 -5 -13 30 6 52 21 44 29 -2 2 -20 -5 -39
-16z"/>
<path d="M834 1798 c-13 -16 -14 -19 -2 -10 11 9 18 10 23 2 3 -5 2 -10 -4
-10 -5 0 -16 -6 -23 -13 -7 -7 -30 -23 -50 -36 -21 -12 -38 -25 -38 -27 0 -6
83 37 90 46 3 3 13 9 22 13 11 4 17 14 15 26 -5 31 -12 33 -33 9z"/>
<path d="M1008 1803 c7 -3 16 -2 19 1 4 3 -2 6 -13 5 -11 0 -14 -3 -6 -6z"/>
<path d="M628 1784 c-39 -21 -35 -28 5 -8 37 19 44 24 31 24 -5 -1 -21 -8 -36
-16z"/>
<path d="M885 1480 c-10 -11 -16 -22 -14 -24 2 -2 12 7 22 20 22 29 17 32 -8
4z"/>
<path d="M900 1385 c-7 -9 -11 -18 -8 -20 3 -3 11 1 18 10 7 9 11 18 8 20 -3
3 -11 -1 -18 -10z"/>
<path d="M1245 425 c-28 -29 -31 -37 -12 -29 13 5 52 54 43 54 -3 0 -17 -11
-31 -25z"/>
</g>
</svg>
